<?xml version="1.0" standalone="no"?>
<!DOCTYPE svg PUBLIC "-//W3C//DTD SVG 20010904//EN"
 "http://www.w3.org/TR/2001/REC-SVG-20010904/DTD/svg10.dtd">
<svg version="1.0" xmlns="http://www.w3.org/2000/svg"
 width="1259.000000pt" height="1259.000000pt" viewBox="0 0 1259.000000 1259.000000"
 preserveAspectRatio="xMidYMid meet">
<metadata>
Created by potrace 1.14, written by Peter Selinger 2001-2017
</metadata>
<g transform="translate(0.000000,1259.000000) scale(0.100000,-0.100000)"
fill="#000000" stroke="none">
<path d="M5922 12078 c-15 -55 -22 -837 -9 -1013 28 -398 60 -501 234 -768 64
-99 76 -123 58 -120 -62 9 -96 17 -195 43 -111 30 -502 121 -585 137 -75 14
-162 8 -186 -13 -22 -20 -97 -171 -149 -299 -17 -44 -36 -89 -40 -100 -5 -11
-30 -74 -55 -140 -41 -106 -226 -551 -307 -740 -50 -115 -157 -332 -226 -458
-72 -132 -73 -138 -17 -208 19 -24 35 -49 35 -55 0 -6 -24 -33 -53 -60 -199
-183 -306 -282 -427 -398 -384 -363 -414 -391 -465 -415 -48 -23 -93 -29 -290
-36 -82 -3 -184 -7 -225 -10 -41 -2 -149 -7 -240 -10 -91 -3 -235 -8 -320 -11
-353 -12 -1001 -6 -1120 11 -14 2 -35 4 -46 4 -12 1 -51 21 -88 46 -105 72
-182 94 -289 84 -168 -18 -309 -136 -374 -316 -19 -50 -24 -233 -10 -299 44
-201 132 -317 284 -377 55 -21 82 -26 178 -33 44 -3 85 -7 91 -9 6 -2 22 -25
34 -52 13 -26 79 -162 147 -302 67 -139 123 -255 123 -257 0 -2 23 -52 50
-110 28 -58 50 -112 50 -118 0 -7 4 -16 8 -21 5 -6 26 -50 47 -100 63 -151
219 -464 286 -575 126 -208 269 -374 413 -480 87 -63 253 -142 406 -194 235
-78 301 -93 515 -111 164 -14 220 -20 298 -30 135 -18 143 -19 237 -35 202
-34 303 -58 465 -110 225 -71 638 -183 795 -214 14 -3 34 -7 45 -10 25 -6 401
-86 435 -92 14 -3 102 -22 195 -43 168 -38 262 -56 360 -66 28 -3 66 -7 85
-10 19 -2 58 -6 85 -9 222 -21 242 -30 340 -151 108 -134 167 -231 320 -530
76 -148 147 -283 157 -300 41 -67 57 -109 47 -126 -5 -9 -25 -39 -46 -65 -45
-59 -251 -332 -275 -365 -52 -72 -187 -241 -207 -259 -23 -21 -158 -183 -212
-255 -67 -87 -105 -143 -284 -410 -89 -132 -196 -291 -238 -353 -78 -114 -93
-156 -63 -181 8 -6 54 -16 102 -21 49 -6 107 -12 129 -15 22 -2 92 -7 155 -10
63 -4 140 -8 170 -10 30 -2 143 -7 250 -10 255 -8 361 -12 555 -21 88 -4 183
-6 210 -5 28 1 82 1 120 0 325 -7 1047 1 1345 16 30 1 128 6 217 10 90 3 186
8 214 10 28 2 102 6 163 10 61 3 131 8 156 10 25 2 88 6 140 9 52 4 120 8 150
11 30 3 96 7 145 10 249 14 371 25 455 40 8 1 35 6 60 10 94 15 208 48 285 84
45 21 94 41 110 45 37 9 254 106 355 159 114 60 256 156 327 221 23 21 53 46
65 54 29 20 137 112 201 172 27 25 53 47 58 48 12 5 81 139 86 166 2 11 10 27
18 36 8 9 15 22 15 28 0 7 4 20 9 30 5 9 27 60 48 112 l38 95 2 175 c3 300 -8
336 -195 675 -73 132 -115 237 -133 329 -9 47 -12 66 -25 151 -2 17 -6 41 -9
55 -2 14 -7 41 -9 60 -15 96 -26 128 -103 290 -35 74 -82 193 -104 265 -37
119 -102 372 -113 434 -16 96 -64 283 -116 451 -41 131 -73 262 -85 343 -3 27
-8 56 -9 65 -2 10 -7 38 -10 65 -4 26 -18 71 -30 100 -21 46 -50 137 -100 302
-8 28 -35 109 -60 180 -62 178 -95 299 -100 368 -12 143 -86 312 -295 680
-207 364 -324 628 -386 872 -5 17 -9 35 -11 40 -14 52 -34 180 -39 247 -11
136 -11 152 -2 171 10 22 3 23 207 -53 139 -52 310 -106 365 -115 11 -2 42 -8
68 -14 206 -48 538 -46 822 3 87 15 164 54 166 83 7 93 -35 187 -125 277 -92
94 -205 164 -328 205 -81 27 -291 68 -388 75 -41 3 -104 8 -139 11 -35 3 -67
7 -69 10 -3 2 -15 30 -28 61 l-23 57 31 46 c33 49 236 257 328 337 250 216
377 342 467 464 74 101 243 353 243 364 0 26 -183 -33 -450 -146 -232 -98
-575 -287 -742 -408 -84 -61 -294 -270 -356 -354 -30 -39 -82 -92 -124 -123
-130 -99 -170 -151 -181 -235 -1 -15 -5 -30 -8 -33 -4 -3 -33 43 -65 102 -32
60 -85 143 -116 185 -77 104 -93 137 -203 430 -133 351 -209 499 -369 723
-162 227 -387 446 -666 651 -30 22 -80 58 -110 80 -76 56 -407 273 -570 374
-227 140 -239 148 -450 283 -113 72 -264 161 -337 198 -72 37 -146 77 -163 89
-67 48 -81 -12 -24 -106 20 -32 40 -66 45 -75 5 -11 -11 -6 -54 16 -34 18
-181 81 -326 140 -306 123 -377 163 -467 266 -45 52 -52 54 -62 17z"/>
</g>
</svg>
