<?xml version="1.0" encoding="UTF-8" standalone="no"?>
<!-- Created with Inkscape (http://www.inkscape.org/) -->

<svg
   version="1.1"
   id="svg182"
   width="1242"
   height="1259"
   viewBox="0 0 1242 1259"
   sodipodi:docname="logo.svg"
   inkscape:version="1.2 (dc2aedaf03, 2022-05-15)"
   xmlns:inkscape="http://www.inkscape.org/namespaces/inkscape"
   xmlns:sodipodi="http://sodipodi.sourceforge.net/DTD/sodipodi-0.dtd"
   xmlns="http://www.w3.org/2000/svg"
   xmlns:svg="http://www.w3.org/2000/svg">
  <defs
     id="defs186" />
  <sodipodi:namedview
     id="namedview184"
     pagecolor="#ffffff"
     bordercolor="#666666"
     borderopacity="1.0"
     inkscape:showpageshadow="2"
     inkscape:pageopacity="0.0"
     inkscape:pagecheckerboard="0"
     inkscape:deskcolor="#d1d1d1"
     showgrid="false"
     showguides="false"
     inkscape:zoom="1"
     inkscape:cx="844"
     inkscape:cy="276.5"
     inkscape:window-width="1920"
     inkscape:window-height="996"
     inkscape:window-x="-8"
     inkscape:window-y="-8"
     inkscape:window-maximized="1"
     inkscape:current-layer="g188" />
  <g
     inkscape:groupmode="layer"
     inkscape:label="Image"
     id="g188">
    <path
       style="fill:#a2a2a2"
       d="m 700.13285,1209.595 c -6.05,-0.4073 -22.7,-1.0366 -37,-1.3985 -39.20525,-0.9922 -82.33165,-3.4317 -88.24541,-4.9917 -2.87719,-0.759 -7.42137,0.2109 -12.34196,-1.9653 1.84583,-1.5247 4.24852,0.4056 6.13723,-1.4122 0.87239,-0.9293 4.68548,-4.3897 8.47352,-7.6897 18.40172,-16.0309 28.62377,-26.8145 52.36701,-55.2437 9.39039,-11.2437 9.39039,-11.2437 11.704,-6.25 3.90886,8.4369 6.38203,6.2461 26.53558,-23.5063 21.59483,-31.8801 46.6492,-62.6175 48.25896,-59.2055 0.31279,0.663 1.69846,3.0055 3.07925,5.2055 2.31604,3.6901 4.72608,8.303 4.96334,9.5 0.0545,0.275 0.45627,1.0625 0.89281,1.75 0.43654,0.6875 0.4724,1.25 0.0797,1.25 -0.3927,0 -0.004,0.7875 0.8647,1.75 0.86829,0.9625 5.19196,8.725 9.60815,17.25 4.41619,8.525 9.39292,17.975 11.05939,21 1.66647,3.025 3.51705,6.6194 4.1124,7.9875 4.87353,11.1997 14.44663,14.7198 21.79019,8.0125 1.80652,-1.65 3.51086,-3 3.78742,-3 0.27656,0 1.61855,-1.3259 2.9822,-2.9466 1.36365,-1.6206 3.2471,-3.2066 4.18544,-3.5246 3.89858,-1.321 8.37083,-9.0604 7.03005,-12.1658 -1.5062,-3.4885 -6.63674,-10.3842 -9.05452,-12.1697 -0.9732,-0.7187 -1.76945,-1.9187 -1.76945,-2.6667 0,-0.748 -0.3375,-1.5099 -0.75,-1.6933 -0.4125,-0.1833 -1.68737,-1.6833 -2.83305,-3.3333 -1.14568,-1.65 -4.07068,-5.8503 -6.5,-9.3339 -4.21687,-6.047 -13.39433,-19.4097 -28.2407,-41.1194 -6.82374,-9.9783 -6.82374,-9.9783 -3.1942,-13.1651 15.06756,-13.2295 17.56121,-17.27492 17.32576,-28.10732 -0.10431,-4.7992 0.009,-8.8775 0.25126,-9.0629 0.24251,-0.1854 5.16593,-3.887 10.94093,-8.22575 14.67412,-11.02465 18.1897,-14.55247 21.94064,-22.01703 3.44079,-6.84732 19.21545,-25.37667 24.16819,-28.38861 1.53068,-0.93086 8.54489,-8.78543 15.58712,-17.45458 21.92325,-26.98806 23.44527,-28.74057 26.66659,-30.70483 5.07679,-3.09567 9.63746,-2.61845 9.63746,1.00844 0,2.69331 -0.44696,3.05898 -5.55358,4.54351 -6.53102,1.89862 -6.70053,3.73118 -0.86015,9.29918 8.00172,7.62854 8.03928,8.35531 7.2468,140.22829 -0.0215,3.575 0.19305,11.225 0.47674,17 0.28369,5.775 0.08,13.1163 -0.45261,16.314 -4.95007,29.7184 -5.74674,70.7439 -1.84841,95.186 0.52633,3.3 1.14586,7.35 1.37674,9 3.29257,23.5306 13.66636,0.7209 16.60011,-36.5 0.58524,-7.425 1.31658,-14.625 1.6252,-16 0.30862,-1.375 0.53213,-7.6597 0.49668,-13.9659 -0.0545,-9.693 1.25124,-25.3112 4.51737,-54.0341 0.75864,-6.6716 1.57061,-4.9142 6.41253,13.8789 1.61243,6.2584 3.38742,11.9281 3.94442,12.5992 2.20186,2.6531 6.20705,28.0998 6.92884,44.0219 1.24142,27.3848 7.41105,13.7449 8.14179,-18 0.20253,-8.798 1.14112,-14.5536 2.11997,-13 0.34652,0.55 2.25602,5.115 4.24334,10.1444 7.18586,18.1856 13.04437,26.182 16.11024,21.9891 0.94675,-1.2947 0.11084,-5.0048 -4.25218,-18.8725 -2.98682,-9.4936 -6.05389,-19.736 -6.8157,-22.761 -1.87512,-7.4457 -6.93975,-46.2574 -9.46069,-72.5 -0.63401,-6.60002 -2.04893,-16.95002 -3.14426,-23.00002 -2.17373,-12.00657 -2.23741,-12.57819 -4.38279,-39.34551 -0.80871,-10.09003 -1.273,-18.66487 -1.03177,-19.0552 0.24124,-0.39033 0.0321,-2.48485 -0.46476,-4.65449 -0.49686,-2.16964 -0.98139,-11.9876 -1.07674,-21.81769 -0.0953,-9.83008 -0.53826,-21.49254 -0.98425,-25.91657 -0.44599,-4.42402 -1.11621,-13.93123 -1.48939,-21.12711 -0.37317,-7.19589 -0.84175,-13.37089 -1.04128,-13.72222 -0.52351,-0.92181 -0.37968,-36.70189 0.16427,-40.86121 0.47495,-3.63176 2.4382,-82.42647 2.40439,-96.5 -0.0984,-40.96914 -12.15319,-58.53087 -16.47416,-24 -0.2753,2.2 -1.17592,8.05 -2.00139,13 -0.82548,4.95 -1.94228,12.7474 -2.4818,17.32755 -1.28619,10.91902 -1.8958,11.98734 -5.05978,8.86714 -6.84408,-6.74936 -8.36551,-6.06746 -22.69919,10.17374 -12.99713,14.72678 -19.24508,23.45934 -27.99774,39.13157 -10.23682,18.3297 -18.63462,30.22451 -19.0849,27.03222 -0.39445,-2.79647 -3.65356,-6.03223 -6.07577,-6.03223 -0.88981,0 -5.64907,4.05 -10.57614,9 -4.92707,4.95001 -9.6086,9 -10.40342,9 -0.79481,0 -5.5292,3.07441 -10.52085,6.83203 -4.99165,3.75762 -12.54275,9.39246 -16.78022,12.52185 -4.23746,3.1294 -7.99191,6.15489 -8.3432,6.72329 -0.61106,0.98871 -45.34607,30.7604 -48.45231,32.24558 -0.825,0.39446 -3.3,1.77869 -5.5,3.07605 -18.73488,11.04814 -19.05342,11.11587 -43.0612,9.15414 -2.78366,-0.22746 -17.63366,-2.47448 -33,-4.9934 -41.41497,-6.7889 -45.96522,-7.46935 -57.4388,-8.58942 -24.50491,-2.39223 -39.198,-4.17517 -50,-6.06727 -22.18748,-3.8864 -52.63344,-10.05507 -66.5,-13.47359 -17.98971,-4.43499 -41.02809,-8.13404 -55,-8.83082 -6.05,-0.30171 -14.375,-1.26715 -18.5,-2.14543 -4.125,-0.87828 -14.36564,-2.6226 -22.75698,-3.87626 -16.43066,-2.45475 -18.61086,-3.42206 -19.7875,-8.77927 -0.91585,-4.16982 -0.39998,-4.42848 12.54448,-6.28996 14.436,-2.07596 21.48575,-9.42012 9.13922,-9.52089 -1.5955,-0.013 -5.25371,-1.2568 -29.13922,-9.90724 -6.325,-2.29068 -18.925,-6.20281 -28,-8.69362 -51.47475,-14.12827 -73.10785,-23.70486 -80.71302,-35.73024 -3.17467,-5.01982 -3.14818,-5.03259 9.96857,-4.80405 12.0146,0.20934 15.52138,0.42784 34.24445,2.13372 10.11583,0.92167 31.05955,2.52934 73.71313,5.65833 5.7092,0.41881 9.21661,0.12172 13.5,-1.14352 3.18278,-0.94014 6.34937,-1.87312 7.03687,-2.07329 2.64082,-0.76888 1.02314,-4.71324 -4.75572,-11.59582 -3.30315,-3.93403 -5.86582,-7.29268 -5.69483,-7.46367 0.42612,-0.42612 15.38538,7.32802 19.70055,10.21178 8.39329,5.60912 31.47858,8.68598 47.81384,6.37275 4.22739,-0.59864 17.58616,-1.48331 29.68616,-1.96594 29.95671,-1.19486 52.20215,-2.76384 54.27692,-3.82819 0.94769,-0.48616 5.54808,-1.1741 10.22308,-1.52875 4.675,-0.35465 11.31186,-1.31086 14.74858,-2.12491 3.43672,-0.81404 12.43672,-2.40571 20,-3.53704 22.45847,-3.35937 28.752,-5.80065 31.62994,-12.26931 0.78244,-1.75868 3.9316,-8.69084 6.99813,-15.40479 3.06652,-6.71395 8.76022,-20.21395 12.65265,-30 7.20258,-18.10819 8.40146,-20.77445 20.81545,-46.29282 3.87962,-7.975 9.51943,-20.08163 12.5329,-26.90363 5.47905,-12.40362 5.47905,-12.40362 17.16365,-12.70605 48.27632,-1.24954 69.55472,-51.1163 35.33181,-82.80146 -12.90398,-11.9471 -32.43071,-17.48883 -42.77495,-12.13962 -1.80621,0.93402 -3.38256,1.55255 -3.503,1.3745 -3.22171,-4.76284 -7.90586,-10.79494 -9.50995,-12.24663 -1.14687,-1.0379 -2.08521,-2.61186 -2.08521,-3.4977 0,-2.39187 -2.93734,-7.24091 -8,-13.20661 -11.80686,-13.91287 -18.74391,-21.81359 -23.37554,-26.6228 -7.88977,-8.19228 16.87127,-6.88268 51.87554,2.74367 9.9,2.72256 26.325,6.53229 36.5,8.46609 31.54576,5.99537 76.5527,15.65927 81.25496,17.44707 1.39667,0.53101 2.74791,0.75696 3.00277,0.5021 0.25485,-0.25486 1.73984,1.23637 3.29996,3.31385 1.56012,2.07746 3.10946,4.00221 3.44296,4.27721 0.33351,0.275 7.08943,8.82501 15.01316,19 12.93089,16.60479 18.44721,23.50445 29.98619,37.50591 1.925,2.33581 4.625,5.7255 6,7.53265 1.375,1.80714 4.11182,5.12525 6.08181,7.37358 1.97,2.24832 4.99375,6.17395 6.71944,8.7236 1.72568,2.54966 7.3636,10.01787 12.52871,16.59602 8.14353,10.37142 17.97508,23.76295 29.28042,39.88283 13.66067,19.47826 18.09567,13.06385 6.24502,-9.03227 -3.22047,-6.00473 -5.8554,-11.06495 -5.8554,-11.24493 0,-2.61996 -20.41453,-40.05903 -25.68629,-47.10719 -1.34513,-1.79839 -5.85344,-9.89839 -10.01847,-18 -20.98396,-40.81702 -20.29982,-39.36304 -18.2485,-38.78275 1.07429,0.3039 2.74076,0.75544 3.70326,1.00342 5.84165,1.50505 43.83661,5.78036 67.25,7.56717 61.35603,4.68244 87,13.2001 87,28.8971 0,14.40878 13.73087,57.50556 24.46297,76.78141 1.28507,2.3081 3.78688,8.6081 5.55958,14 4.9745,15.13051 11.4248,30.41757 19.5375,46.30345 11.2696,22.06777 18.9447,39.83098 24.9604,57.76828 3.0008,8.94756 7.748,21.32256 10.5493,27.5 2.8013,6.17745 7.7743,17.71539 11.0511,25.63988 5.4409,13.15811 13.554,30.32212 19.8541,42.0031 2.1218,3.93398 2.5168,6.13575 2.7681,15.43068 0.1648,6.09253 1.1557,14.6347 2.2621,19.5 5.7223,25.16402 9.2909,38.78899 12.8753,49.15806 2.1864,6.325 7.4382,24.55 11.6708,40.5 4.2325,15.95 10.385,36.425 13.6723,45.5 5.9156,16.331 9.7765,29.47823 9.7765,33.29133 0,2.8542 5.7635,19.2539 9.0925,25.8719 1.5667,3.1147 4.703,10.5397 6.9694,16.5 2.2664,5.9602 4.705,11.9618 5.4191,13.3368 0.7141,1.375 3.9689,5.65 5.8101,9.5 8.5551,20.3424 17.5551,17.8266 16.1484,24.1196 -1.3519,1.6439 -3.8199,7.6487 -5.3585,10.6304 -0.7804,1.5125 -1.7929,2.75 -2.25,2.75 -0.457,0 -3.4345,2.6035 -6.6165,5.7855 -3.182,3.182 -7.5695,7.1192 -9.75,8.7492 -2.1805,1.63 -5.2366,4.2015 -6.7914,5.7145 -1.5548,1.5129 -3.2024,2.7508 -3.6613,2.7508 -0.4589,0 -3.3694,2.475 -6.4678,5.5 -3.0984,3.025 -6.2072,5.5 -6.9084,5.5 -0.7012,0 -2.2531,1.125 -3.4487,2.5 -1.1955,1.375 -2.646,2.5 -3.2232,2.5 -0.5772,0 -3.427,1.795 -6.3327,3.9889 -7.9251,5.9834 -46.5114,24.0111 -51.3934,24.0111 -0.7194,0 -2.3046,0.644 -3.5228,1.4312 -11.6749,7.5442 -36.1077,12.7026 -69.21485,14.6131 -18.15,1.0473 -42,2.5989 -53,3.448 -65.66812,5.0689 -188.44518,8.3597 -212,5.6822 -5.51009,-0.6263 -9.36838,-0.6646 -9.95,-0.099 -1.05305,1.0246 -7.54959,0.9926 -24.05,-0.1183 z M 710.5967,970.38757 c -2.74981,-10.49794 -8.22037,-25.30071 -12.49749,-33.81698 -4.59935,-9.15786 -4.63379,-9.29892 -2.65007,-10.85572 1.10541,-0.86752 7.11145,-5.54102 13.34677,-10.38557 6.23532,-4.84455 14.33611,-11.14455 18.00177,-14 3.66566,-2.85545 9.74066,-7.32525 13.5,-9.93288 7.76949,-5.38923 28.4913,-24.06051 29.50722,-26.58732 0.36962,-0.91934 3.24035,-3.69653 6.3794,-6.17153 3.13904,-2.475 8.70286,-7.28241 12.36403,-10.68314 3.66118,-3.40072 9.79045,-8.30601 13.6206,-10.90063 8.7623,-5.93578 25.06663,-18.606 42.30322,-32.87418 7.33661,-6.07313 13.74911,-11.19205 14.25,-11.37537 0.50088,-0.18335 0.9276,3.19165 0.94826,7.5 0.0207,4.30832 0.65206,12.55832 1.40313,18.33333 1.36558,10.5 1.36558,10.5 -3.81913,15.5 -13.7144,13.22579 -35.78041,33.03489 -37.11996,33.32332 -0.82588,0.17783 -1.5016,0.76332 -1.5016,1.30107 0,0.53778 -2.55412,3.31728 -5.67583,6.17669 -3.12171,2.8594 -10.20921,9.91908 -15.75,15.68816 -26.62056,27.71737 -46.81365,48.01634 -68.66308,69.02308 -17.76589,17.08069 -16.4863,16.31511 -17.94724,10.73767 z M 398.72496,720.36979 c 3.62566,-3.42772 7.78816,-7.29195 9.25,-8.58718 4.78507,-4.23969 2.13518,-14.43542 -4.06109,-15.6255 -1.52956,-0.29377 -5.70602,-1.2032 -9.28102,-2.02095 -28.37675,-6.49099 -122.12972,-9.90885 -203.96483,-7.43572 -16.85506,0.50937 -15.37543,1.75288 -23.95766,-20.13452 -16.91634,-43.14204 -22.29718,-75.26626 -13.36614,-79.79739 3.18375,-1.61526 8.89612,-4.75985 12.69417,-6.98797 3.79805,-2.22812 11.67305,-5.91046 17.5,-8.18297 5.82695,-2.27251 12.50206,-4.99318 14.83356,-6.04592 2.33151,-1.05275 4.65073,-1.91409 5.15384,-1.91409 0.5031,0 7.82051,-2.02966 16.2609,-4.51036 8.44039,-2.4807 17.59616,-5.17042 20.34616,-5.97715 5.51239,-1.61711 23.03046,-4.70715 37,-6.5265 4.95,-0.64467 10.125,-1.36049 11.5,-1.59071 1.375,-0.23022 11.725,-0.61698 23,-0.85946 11.275,-0.24248 21.625,-0.69246 23,-0.99994 7.65254,-1.71131 159.92101,-1.6672 163.53421,0.0474 3.38068,1.60424 5.27502,1.64033 25.30998,0.48228 61.16923,-3.53567 62.862,-3.39626 64.21188,5.28839 0.67142,4.31966 2.25616,9.8991 3.52165,12.39876 2.30088,4.54483 2.30088,4.54483 -0.52976,10.15229 -1.55685,3.08411 -5.10833,11.05909 -7.89219,17.72218 -2.78385,6.66309 -7.96006,18.58529 -11.50268,26.49378 -8.80919,19.66549 -23.46762,58.04913 -26.57369,69.58419 -1.31623,4.88812 -13.75968,6.0736 -45.1016,4.29679 -19.45139,-1.10272 -37.88426,-0.70367 -45.41097,0.9831 -10.86497,2.43489 -34.55038,16.21213 -52.76348,30.69125 -9.13437,7.26167 -10.78345,6.68746 -2.71124,-0.94405 z M 623.86248,565.55167 c -23.50298,-7.19351 -20.50469,-40.12676 2.58509,-51.29772 17.72871,-8.57724 27.20223,-4.18069 35.04874,11.75784 5.59303,11.36105 0.57629,31.62578 -7.82928,31.62578 -0.43983,0 -3.13573,5.12121 -3.55763,5.24966 -0.98717,0.30053 -1.58195,-1.26888 -2.35535,-1.02667 -3.58206,1.12178 -17.70147,5.5857 -23.89157,3.69111 z M 878.13285,294.55513 c -12.10173,-3.67304 -61.65137,-11.59503 -96,-15.34846 -22.72456,-2.48321 -33.50735,-4.35617 -50.5,-8.7718 -16.63278,-4.32212 -27.92866,-6.93366 -48.5,-11.21293 -18.27388,-3.80134 -17.10644,-3.30993 -14.48712,-6.09807 6.16197,-6.55912 11.71969,-7.08342 52.50398,-4.95313 14.71263,0.76849 30.6674,-0.43094 39.98314,-3.00581 21.94579,-6.0658 21.63797,-5.45822 9.2801,-18.31678 -5.13285,-5.34082 -14.26845,-15.33558 -20.30134,-22.21058 -6.03288,-6.875 -11.66797,-13.27507 -12.52242,-14.22239 -0.85445,-0.9473 -3.14787,-4.54731 -5.09649,-8 -1.94861,-3.45268 -7.66374,-12.80261 -12.70028,-20.77761 -9.29052,-14.71086 -10.32538,-17 -7.68527,-17 1.8068,0 23.27545,10.26805 33.5257,16.03471 14.70329,8.27188 31.53183,18.32778 33.5,20.01793 1.1,0.94462 3.0125,2.02454 4.25,2.39981 1.2375,0.37528 2.25,0.99967 2.25,1.38753 0,0.38787 1.575,1.55341 3.5,2.59009 1.925,1.03668 3.5,2.23101 3.5,2.65408 0,0.42306 0.5625,0.9147 1.25,1.09253 9.93119,2.56879 61.46287,39.37008 53.75,38.3855 -22.74753,-2.90381 -27.00984,-2.68788 -37.96595,1.92349 -19.31452,8.12938 -25.32578,19.79385 -11.33983,22.00427 2.09318,0.33082 12.80578,5.06249 23.80578,10.51482 11,5.45233 25.74391,12.47087 32.76425,15.59673 14.98353,6.67156 28.04721,14.08555 27.20898,15.44182 -0.32519,0.52619 -0.67721,0.91801 -0.78225,0.87075 -0.10504,-0.0473 -1.54098,-0.49571 -3.19098,-0.9965 z M 645.32312,222.57947 c -6.08257,-1.49356 -7.42684,-2.62984 -9.08856,-7.68238 -2.09762,-6.37794 -3.58976,-27.45435 -3.629,-51.25952 -0.0177,-10.725 -0.68039,-26.025 -1.47271,-34 -2.188,-22.02321 -2.31803,-21.19677 2.5887,-16.45294 6.53551,6.31853 16.14484,18.336 21.15211,26.45294 2.54467,4.125 5.55649,8.69617 6.69293,10.15816 1.13645,1.46199 2.06626,3.35213 2.06626,4.20031 0,0.84819 0.59079,1.90201 1.31287,2.34184 0.72207,0.43983 3.51924,3.94969 6.21593,7.79969 2.69669,3.85 5.15825,7.225 5.47013,7.5 6.92233,6.10366 23.63691,47.69077 20.45141,50.8846 -1.01321,1.01586 -47.64608,1.06748 -51.76007,0.0573 z"
       id="path531"
       sodipodi:nodetypes="sssccssssssssscsssssssssssssssssssssssssssssssssssssssssssssssssssssssssssssssssssssssssssssssssssssssssssssssssssssssssssssssssssssssssssssssssssssssssssssssssssccsssssssssssssssscsssssssssssssssssssssssssssssssssssssssssssssssssssssssssssssssssssssssssssssssssssssssssssssssssssss" />
    <path
       style="fill:#e13b34"
       d="m 952.13285,468.11508 c -18.61453,-4.23017 -20.00019,-4.40205 -30.59763,-3.79571 -15.92158,0.91097 -19.40298,-0.90846 -13.33985,-6.97158 2.17733,-2.17734 18.02665,-9.71022 20.43045,-9.71022 1.58682,0 1.88413,-2.98003 0.44126,-4.42291 -2.03061,-2.03061 -63.2162,-2.02935 -88.91141,0.002 -44.22188,3.49569 -77.78049,-1.70915 -102.4381,-15.88783 -4.41528,-2.5389 -4.41528,-2.5389 7.5,-2.19979 13.30583,0.3787 17.77508,-0.47327 31.41528,-5.9887 25.94802,-10.49209 44.50517,-16.20753 55.5,-17.09347 11.41032,-0.91941 22.0355,-3.28111 39,-8.66868 14.75839,-4.68695 16.93121,-5.11343 28,-5.49587 11.33197,-0.39156 14.87168,-0.0655 40.78359,3.75626 15.69497,2.31489 41.2206,14.93467 43.76983,21.63965 1.80378,4.74431 4.94658,29.7731 4.94658,39.39386 0,5.40949 4.47902,15.91608 4.98399,17.24425 1.55643,4.09372 -27.96247,1.27166 -41.48399,-1.80111 z m 146.33565,-26.94303 c -0.1846,-0.16684 -3.2606,-0.54242 -6.8356,-0.83461 -11.0981,-0.90709 -54,-20.70065 -54,-24.91386 0,-0.49723 0.3479,-0.68906 0.773,-0.42629 0.4252,0.26275 9.4295,0.98354 20.0097,1.60177 33.2015,1.94003 46.2756,4.74041 57.9071,12.40331 12.664,8.34305 12.8632,9.14595 2.5938,10.45646 -10.4817,1.33758 -19.9829,2.13364 -20.448,1.71322 z M 722.63285,404.63283 c -3.575,-0.45519 -13.475,-1.35151 -22,-1.99182 -8.525,-0.64031 -20.225,-1.8461 -26,-2.67952 -17.48211,-2.52294 -24.95151,-3.29648 -37.5,-3.88355 -6.6,-0.30877 -17.175,-1.43216 -23.5,-2.49641 -6.325,-1.06425 -20.95,-2.82497 -32.5,-3.9127 -33.54455,-3.15908 -64.5,-9.2163 -64.5,-12.62106 0,-0.704 0.48379,-2.5468 1.07509,-4.0951 1.63251,-4.27471 12.41407,-55.50913 15.849,-75.3151 3.89188,-22.44077 9.07332,-39 12.20323,-39 1.69703,0 10.67322,3.34019 17.37268,6.46467 3.85,1.79556 8.575,3.98596 10.5,4.86756 6.31613,2.89264 26.3473,10.30095 34,12.57453 13.75896,4.08772 38.48534,12.36367 39.64451,13.26908 2.94926,2.30361 47.41128,9.53113 65.35549,10.62386 11.5,0.7003 11.5,0.7003 12.53485,3.90181 0.56916,1.76084 1.33007,3.49674 1.69089,3.85757 1.06218,1.06217 28.62276,0.68412 36.67339,-0.50306 7.96395,-1.17439 7.84578,-1.20138 9.52863,2.17627 1.62202,3.25554 10.86111,5.58706 22.57224,5.69619 5.225,0.0487 18.95,0.94948 30.5,2.00175 11.55,1.05226 25.05,2.19773 30,2.54549 33.37518,2.34473 41.73036,5.67003 41.00037,16.31783 -0.81304,11.85922 -1.40086,15.20645 -2.67043,15.20645 -0.59368,0 -5.86089,1.75944 -11.7049,3.90986 -5.844,2.15042 -18.50037,6.18469 -28.12525,8.96502 -9.62489,2.78034 -22.89979,6.88709 -29.49979,9.12608 -6.6,2.23901 -19.65,6.07508 -29,8.52462 -20.47277,5.3635 -26.51145,7.00473 -46,12.50215 -17.27859,4.87401 -18.73282,5.08382 -27.5,3.96753 z m 305.55155,-29.29638 c 0.9337,-3.14043 9.0021,-18.30369 11.4417,-21.50292 20.5652,-26.96828 29.894,-35.09536 53.7945,-46.86505 10.5288,-5.18485 10.3239,-4.89615 -14.0607,19.80631 -12.2249,12.38416 -27.5436,28.20108 -34.0416,35.14872 -12.0425,12.87561 -18.4703,17.9075 -17.1339,13.41294 z"
       id="path529"
       sodipodi:nodetypes="ssssscssssssssssssssssssssssssssssssssssssssssssssssssssscssss" />
    <path
       style="fill:#030202"
       d="m 560.63285,1198.4358 c 0,-3.9827 1.85139,-7.2736 12.54465,-22.2982 5.08877,-7.15 10.08549,-14.4251 11.10383,-16.1669 2.62448,-4.4889 18.98338,-28.9293 27.53579,-41.1388 9.15381,-13.0681 19.80809,-26.4196 29.26471,-36.6734 7.59384,-8.2339 13.84941,-16.1734 27.19938,-34.5209 4.20198,-5.775 11.53521,-15.45 16.29606,-21.5 13.26026,-16.8509 12.61251,-14.7518 7.26103,-23.5306 -2.50426,-4.10822 -10.95237,-20.29442 -18.77357,-35.96942 -14.55311,-29.16687 -19.8964,-37.7599 -33.15088,-53.31297 -8.76256,-10.28217 -2.98021,-8.75687 -55.781,-14.71421 -4.95,-0.5585 -13.5,-2.12286 -19,-3.47636 -11.3579,-2.79508 -31.98698,-7.26265 -67.40541,-14.59778 -13.42297,-2.77988 -28.04797,-6.15147 -32.5,-7.49242 -4.45202,-1.34095 -11.91959,-3.38475 -16.59459,-4.54179 -14.28241,-3.53481 -34.96555,-9.56417 -45.5,-13.26375 -16.36609,-5.74758 -56.87309,-12.73281 -87.87388,-15.1534 -29.43023,-2.29795 -32.5091,-2.95578 -64.12612,-13.70119 -48.06093,-16.33407 -73.11881,-47.24651 -110.44222,-136.24614 -3.92107,-9.35 -13.00878,-28.9106 -20.19491,-43.468 -7.18613,-14.55741 -14.41067,-29.476 -16.05454,-33.15243 -2.98884,-6.68441 -2.98884,-6.68441 -10.148584,-6.73606 -30.641684,-0.22101 -47.609468,-17.51257 -50.231009,-51.18949 -3.304095,-42.44516 42.415892,-68.08902 71.938613,-40.3496 5.24303,4.92632 82.66107,5.56985 173.63265,1.44331 12.375,-0.56133 29.7,-1.32018 38.5,-1.68632 18.52932,-0.77094 15.94874,0.81036 47,-28.80027 9.35,-8.9162 20.825,-19.73747 25.5,-24.04727 4.675,-4.3098 12.11199,-11.25101 16.52664,-15.42493 4.41465,-4.17392 11.50215,-10.7057 15.75,-14.51507 9.11768,-8.17653 8.78837,-6.78974 3.22336,-13.57387 -5.59795,-6.82429 -5.59852,-6.80817 0.6289,-17.6065 8.64929,-14.99782 21.40292,-41.46338 28.74299,-59.6457 3.84086,-9.51431 10.2316,-24.71228 14.20165,-33.77327 3.97004,-9.06099 9.80572,-23.44953 12.96817,-31.97453 10.01271,-26.99118 20.65677,-50.2625 23.70368,-51.82379 4.80204,-2.46066 11.72544,-2.24249 24.25461,0.76429 6.875,1.64988 18.125,4.17697 25,5.61575 6.875,1.43878 18.61202,4.33833 26.08227,6.44343 16.60663,4.67973 23.56328,5.89158 22.28702,3.8824 -0.48285,-0.76014 -3.98959,-6.09877 -7.79275,-11.86361 -12.7266,-19.29102 -17.3431,-30.21351 -20.06649,-47.47666 -1.92636,-12.2109 -4.23257,-43.28972 -3.89887,-52.54181 0.14877,-4.125 0.4294,-23.7 0.62361,-43.499995 0.40474,-41.262726 0.45607,-41.462276 8.07896,-31.407048 3.83283,5.05583 14.50125,12.80893 22.19498,16.129831 2.1952,0.947531 10.06627,4.160957 17.49127,7.140946 7.425,2.979991 16.2,6.526121 19.5,7.880301 3.3,1.35417 8.07129,3.21518 10.60286,4.13557 2.53157,0.92038 7.19403,3.23375 10.36101,5.1408 5.75814,3.46738 5.75814,3.46738 3.94152,0.72349 -7.79163,-11.76875 -9.1741,-15.07709 -7.7984,-18.662103 0.90701,-2.36364 2.92869,-1.928359 6.79003,1.461933 1.90663,1.67405 7.65979,4.74321 12.78479,6.82035 5.12501,2.07714 13.59671,6.66997 18.826,10.20628 11.54841,7.809595 21.55919,14.131575 55.99219,35.360035 94.45035,58.23005 127.20754,87.48567 158.17035,141.26273 7.33324,12.73657 8.73324,16.06871 23.86741,56.80688 6.43293,17.31619 10.66552,25.54205 16.46549,32 2.46981,2.75 6.81677,9.56511 9.65991,15.14468 7.32201,14.3692 8.78554,16.14086 8.8146,10.67042 0.0438,-8.244 5.43325,-15.23231 19.17138,-24.85887 4.29371,-3.0087 8.50771,-6.8258 9.36441,-8.48243 4.0622,-7.85539 23.1047,-27.44714 37.0082,-38.07564 20.2193,-15.45662 60.5913,-36.6572 91.9783,-48.30065 9.9,-3.67254 19.0337,-7.10938 20.2971,-7.63743 2.7559,-1.15187 6.9006,-1.25828 7.5583,-0.19405 0.6074,0.98286 -20.3276,32.08451 -28.7155,42.66055 -6.642,8.37463 -16.6244,18.02233 -37.1399,35.8947 -26.7408,23.29559 -42.9479,41.15386 -40.4343,44.55367 1.2275,1.66034 2.5089,4.73021 2.8474,6.82193 0.6156,3.80312 0.6156,3.80312 13.1012,4.43064 6.8672,0.34513 16.5357,1.39484 21.4857,2.33269 4.95,0.93784 12.285,2.33766 16.3,3.1107 30.7067,5.91221 59.2738,32.15623 55.7159,51.18507 -1.0203,5.4572 -14.7566,9.24428 -40.7121,11.22428 -39.71,3.02928 -65.9109,-1.41829 -109.466,-18.58168 -14.9996,-5.91082 -13.751,-6.85557 -13.0203,9.85142 1.3502,30.86953 15.4394,71.05818 39.5277,112.75 27.1397,46.97342 34.1548,63.12981 34.1548,78.66133 0,3.98611 6.1599,24.57331 12.0698,40.33867 2.1648,5.775 4.9977,14.55 6.2952,19.5 2.7332,10.42687 7.2555,23.33785 8.8457,25.25386 0.6041,0.72797 1.6857,5.91866 2.4035,11.53486 2.2599,17.68189 4.3345,26.68469 10.4479,45.33993 3.2768,9.9994 7.2756,24.91698 8.9174,33.26701 1.6371,8.3261 4.0608,19.29321 5.386,24.37135 1.3252,5.07814 2.6875,10.80799 3.0274,12.73299 0.3398,1.925 1.2441,4.69945 2.0093,6.16545 0.7653,1.466 2.3721,6.866 3.5706,12 1.5882,6.80303 4.1654,13.26693 9.5028,23.83455 7.6446,15.1358 9.2217,19.53646 10.5719,29.5 4.7672,35.17801 6.671,41.2457 20.1133,64.1048 14.4828,24.62833 17.2758,34.21063 17.3123,59.39523 0.029,19.6234 -0.1742,20.8169 -5.5397,32.6065 -1.5285,3.3587 -3.267,7.9187 -3.8634,10.1336 -0.5964,2.2148 -1.7561,4.5844 -2.5772,5.2659 -0.821,0.6814 -1.4928,2.0572 -1.4928,3.0574 0,8.3476 -8.436,-1.8303 -17.873,-21.5634 -1.8412,-3.85 -3.9319,-8.125 -4.646,-9.5 -0.7141,-1.375 -3.1527,-7.3766 -5.4191,-13.3368 -2.2664,-5.9603 -5.4027,-13.3853 -6.9694,-16.5 -3.329,-6.618 -9.0925,-23.0177 -9.0925,-25.8719 0,-3.8131 -3.8609,-16.96033 -9.7765,-33.29133 -3.2873,-9.075 -9.4398,-29.55 -13.6723,-45.5 -4.2326,-15.95 -9.4844,-34.175 -11.6708,-40.5 -3.5844,-10.36907 -7.153,-23.99404 -12.8753,-49.15806 -1.1064,-4.8653 -2.0973,-13.40747 -2.2621,-19.5 -0.2513,-9.29493 -0.6463,-11.4967 -2.7681,-15.43068 -6.3001,-11.68098 -14.4132,-28.84499 -19.8541,-42.0031 -3.2768,-7.92449 -8.2498,-19.46243 -11.0511,-25.63988 -2.8013,-6.17744 -7.5485,-18.55244 -10.5493,-27.5 -6.0157,-17.9373 -13.6908,-35.70051 -24.9604,-57.76828 -8.1127,-15.88588 -14.563,-31.17294 -19.5375,-46.30345 -1.7727,-5.3919 -4.27451,-11.6919 -5.55958,-14 -10.7321,-19.27585 -24.46297,-62.37262 -24.46297,-76.78141 0,-15.697 -25.64397,-24.21466 -87,-28.8971 -24.03945,-1.83459 -61.64707,-6.09485 -67.5,-7.64651 -1.1,-0.29163 -2.76647,-0.74317 -3.70326,-1.00343 -1.23193,-0.34226 0.0441,2.93113 4.61124,11.82935 3.47297,6.7664 9.72224,18.93114 13.88726,27.03275 4.16503,8.10161 8.67334,16.20161 10.01847,18 5.27176,7.04815 25.68629,44.48723 25.68629,47.10719 0,0.17998 2.63493,5.2402 5.8554,11.24493 11.85065,22.09612 7.41565,28.51053 -6.24502,9.03227 -11.30534,-16.11988 -21.13689,-29.51141 -29.28042,-39.88283 -5.16511,-6.57815 -10.80303,-14.04636 -12.52871,-16.59602 -1.72569,-2.54965 -4.74944,-6.47528 -6.71944,-8.7236 -1.96999,-2.24833 -4.70681,-5.56644 -6.08181,-7.37358 -1.375,-1.80715 -4.075,-5.19684 -6,-7.53265 -11.53898,-14.00146 -17.0553,-20.90112 -29.98619,-37.50591 -7.92373,-10.17499 -14.67965,-18.725 -15.01316,-19 -0.3335,-0.275 -1.88284,-2.19975 -3.44296,-4.27721 -1.56012,-2.07748 -3.04511,-3.56871 -3.29996,-3.31385 -0.25486,0.25485 -1.6061,0.0289 -3.00277,-0.5021 -4.70226,-1.7878 -49.7092,-11.4517 -81.25496,-17.44708 -10.175,-1.9338 -26.6,-5.74353 -36.5,-8.46608 -35.00427,-9.62635 -59.76531,-10.93596 -51.87554,-2.74368 4.63163,4.80921 11.56868,12.70993 23.37554,26.6228 5.06266,5.96571 8,10.81474 8,13.20662 0,0.88583 0.93834,2.45979 2.08521,3.4977 1.60409,1.45169 6.28824,7.48379 9.50995,12.24663 0.12044,0.17804 1.69679,-0.44048 3.503,-1.37451 10.34424,-5.3492 29.87097,0.19253 42.77495,12.13963 34.22291,31.68516 12.94451,81.55192 -35.33181,82.80146 -11.6846,0.30243 -11.6846,0.30243 -17.16365,12.70605 -3.01347,6.822 -8.65328,18.92863 -12.5329,26.90363 -12.41399,25.51837 -13.61287,28.18463 -20.81545,46.29282 -3.89243,9.78605 -9.58613,23.28605 -12.65265,30 -3.06653,6.71395 -6.21569,13.64611 -6.99813,15.40479 -2.87794,6.46866 -9.17147,8.90994 -31.62994,12.26931 -7.56328,1.13133 -16.56328,2.723 -20,3.53704 -3.43672,0.81405 -10.07358,1.77026 -14.74858,2.12491 -4.675,0.35465 -9.27539,1.04259 -10.22308,1.52875 -2.07477,1.06435 -24.32021,2.63333 -54.27692,3.82819 -12.1,0.48263 -25.45877,1.3673 -29.68616,1.96594 -16.33526,2.31323 -39.42055,-0.76363 -47.81384,-6.37275 -4.31517,-2.88376 -19.27443,-10.6379 -19.70055,-10.21178 -0.17099,0.17099 2.39168,3.52964 5.69483,7.46367 5.77886,6.88258 7.39654,10.82694 4.75572,11.59582 -0.6875,0.20017 -3.85409,1.13315 -7.03687,2.07329 -4.28339,1.26524 -7.7908,1.56233 -13.5,1.14352 -42.65358,-3.12899 -63.5973,-4.73666 -73.71313,-5.65833 -41.33736,-3.76629 -48.02815,-3.36219 -44.21302,2.67033 7.60517,12.02538 29.23827,21.60197 80.71302,35.73024 9.075,2.49081 21.675,6.40294 28,8.69362 23.88551,8.65044 27.54372,9.89422 29.13922,9.90724 12.34653,0.10077 5.29678,7.44493 -9.13922,9.52089 -12.94446,1.86148 -13.46033,2.12014 -12.54448,6.28996 1.17664,5.35721 3.35684,6.32452 19.7875,8.77927 8.39134,1.25366 18.63198,2.99798 22.75698,3.87626 4.125,0.87828 12.45,1.84372 18.5,2.14543 13.97191,0.69678 37.01029,4.39583 55,8.83082 13.86656,3.41852 44.31252,9.58719 66.5,13.47359 10.802,1.8921 25.49509,3.67504 50,6.06727 11.47358,1.12007 16.02383,1.80052 57.4388,8.58942 15.36634,2.51892 30.21634,4.76594 33,4.9934 24.00778,1.96173 24.32632,1.89401 43.0612,-9.15414 2.2,-1.29736 4.675,-2.68158 5.5,-3.07604 3.10624,-1.48519 47.84125,-31.25687 48.45231,-32.24559 0.35129,-0.5684 4.10574,-3.59388 8.3432,-6.72328 4.23747,-3.1294 11.78857,-8.76423 16.78022,-12.52185 4.99165,-3.75762 9.72604,-6.83203 10.52085,-6.83203 0.79482,0 5.47635,-4.05 10.40342,-9 4.92707,-4.95 9.68633,-9 10.57614,-9 2.42221,0 5.68132,3.23575 6.07577,6.03222 0.45028,3.19229 8.84808,-8.70252 19.0849,-27.03222 8.75266,-15.67223 15.00061,-24.40479 27.99774,-39.13157 14.33368,-16.2412 15.85511,-16.9231 22.69919,-10.17374 3.16398,3.1202 3.77359,2.05188 5.05978,-8.86714 0.53952,-4.58015 1.65632,-12.37755 2.4818,-17.32755 0.82547,-4.95 1.72609,-10.8 2.00139,-13 4.32097,-34.53087 16.37576,-16.96914 16.47416,24 0.0338,14.07353 -1.92944,92.86824 -2.40439,96.5 -0.54395,4.15932 -0.68778,39.9394 -0.16427,40.86121 0.19953,0.35133 0.66811,6.52633 1.04128,13.72222 0.37318,7.19588 1.0434,16.70309 1.48939,21.12711 0.44599,4.42403 0.8889,16.08649 0.98425,25.91657 0.0954,9.83009 0.57988,19.64805 1.07674,21.81769 0.49686,2.16964 0.706,4.26416 0.46476,4.65449 -0.24123,0.39033 0.22306,8.96517 1.03177,19.0552 2.14538,26.76732 2.20906,27.33894 4.38279,39.34551 1.09533,6.05 2.51025,16.4 3.14426,23.00002 2.52094,26.2426 7.58557,65.0543 9.46069,72.5 0.76181,3.025 3.82888,13.2674 6.8157,22.761 4.36302,13.8677 5.19893,17.5778 4.25218,18.8725 -3.06587,4.1929 -8.92438,-3.8035 -16.11024,-21.9891 -1.98732,-5.0294 -3.89682,-9.5944 -4.24334,-10.1444 -0.97885,-1.5536 -1.91744,4.202 -2.11997,13 -0.73074,31.7449 -6.90037,45.3848 -8.14179,18 -0.72179,-15.9221 -4.72698,-41.3688 -6.92884,-44.0219 -0.557,-0.6711 -2.33199,-6.3408 -3.94442,-12.5992 -4.84192,-18.7931 -5.65389,-20.5505 -6.41253,-13.8789 -3.26613,28.7229 -4.57184,44.3411 -4.51737,54.0341 0.0354,6.3062 -0.18806,12.5909 -0.49668,13.9659 -0.30862,1.375 -1.03996,8.575 -1.6252,16 -2.93375,37.2209 -13.30754,60.0306 -16.60011,36.5 -0.23088,-1.65 -0.85041,-5.7 -1.37674,-9 -3.89833,-24.4421 -3.10166,-65.4676 1.84841,-95.186 0.53263,-3.1977 0.7363,-10.539 0.45261,-16.314 -0.28369,-5.775 -0.49822,-13.425 -0.47674,-17 0.79248,-131.87298 0.75492,-132.59975 -7.2468,-140.22829 -5.84038,-5.568 -5.67087,-7.40056 0.86015,-9.29918 5.10662,-1.48453 5.55358,-1.8502 5.55358,-4.54351 0,-3.62689 -4.56067,-4.10411 -9.63746,-1.00844 -3.22132,1.96426 -4.74334,3.71677 -26.66659,30.70483 -7.04223,8.66915 -14.05644,16.52372 -15.58712,17.45458 -4.95274,3.01194 -20.7274,21.54129 -24.16819,28.38861 -3.75094,7.46456 -7.26652,10.99238 -21.94064,22.01703 -5.775,4.33875 -10.69842,8.04035 -10.94093,8.22575 -0.2425,0.1854 -0.35557,4.2637 -0.25126,9.0629 0.23545,10.8324 -2.2582,14.87782 -17.32576,28.10732 -3.62954,3.1868 -3.62954,3.1868 3.1942,13.1651 14.84637,21.7097 24.02383,35.0724 28.2407,41.1194 2.42932,3.4836 5.35432,7.6839 6.5,9.3339 1.14568,1.65 2.42055,3.15 2.83305,3.3333 0.4125,0.1834 0.75,0.9453 0.75,1.6933 0,0.748 0.79625,1.948 1.76945,2.6667 2.41778,1.7855 7.54832,8.6812 9.05452,12.1697 1.34078,3.1054 -3.13147,10.8448 -7.03005,12.1658 -0.93834,0.318 -2.82179,1.904 -4.18544,3.5246 -1.36365,1.6207 -2.70564,2.9466 -2.9822,2.9466 -0.27656,0 -1.9809,1.35 -3.78742,3 -7.34356,6.7073 -16.91666,3.1872 -21.79019,-8.0125 -0.59535,-1.3681 -2.44593,-4.9625 -4.1124,-7.9875 -1.66647,-3.025 -6.6432,-12.475 -11.05939,-21 -4.41619,-8.525 -8.73986,-16.2875 -9.60815,-17.25 -0.86829,-0.9625 -1.22886,-1.75 -0.80127,-1.75 0.42758,0 0.3106,-0.5625 -0.25998,-1.25 -0.57057,-0.6875 -1.04404,-1.475 -1.05214,-1.75 -0.0323,-1.0958 -2.31049,-5.7133 -4.68716,-9.5 -1.38079,-2.2 -2.76646,-4.5425 -3.07925,-5.2055 -1.60976,-3.412 -26.66413,27.3254 -48.25896,59.2055 -20.15355,29.7524 -22.62672,31.9432 -26.53558,23.5063 -2.31361,-4.9937 -2.31361,-4.9937 -11.704,6.25 -23.74324,28.4292 -33.96529,39.2128 -52.36701,55.2437 -3.78804,3.3 -7.60113,6.7604 -8.47352,7.6897 -2.806,2.9892 -8.04986,2.0827 -8.04986,-1.3915 z M 728.54394,959.6499 c 21.84943,-21.00675 42.04252,-41.30571 68.66308,-69.02308 5.54079,-5.76908 12.62829,-12.82876 15.75,-15.68816 3.12171,-2.85941 5.67583,-5.63891 5.67583,-6.17669 0,-0.53776 0.67572,-1.12324 1.5016,-1.30107 1.33955,-0.28843 23.40556,-20.09753 37.11996,-33.32332 5.18471,-5 5.18471,-5 3.81913,-15.5 -0.75107,-5.775 -1.38248,-14.025 -1.40313,-18.33333 -0.0207,-4.30835 -0.44738,-7.68335 -0.94826,-7.5 -0.50089,0.18332 -6.91339,5.30224 -14.25,11.37537 -17.23659,14.26818 -33.54092,26.9384 -42.30322,32.87418 -3.83015,2.59463 -9.95942,7.49991 -13.6206,10.90063 -3.66117,3.40073 -9.22499,8.20814 -12.36403,10.68314 -3.13905,2.475 -6.00978,5.25219 -6.3794,6.17153 -1.01592,2.52681 -21.73773,21.19809 -29.50722,26.58732 -3.75934,2.60763 -9.83434,7.07743 -13.5,9.93288 -3.66566,2.85545 -11.76645,9.15545 -18.00177,14 -6.23532,4.84455 -12.24136,9.51805 -13.34677,10.38557 -1.98372,1.5568 -1.94928,1.69786 2.65007,10.85572 4.27712,8.51626 9.74768,23.31904 12.49749,33.81698 1.46094,5.57744 0.18135,6.34302 17.94724,-10.73767 z M 401.4362,721.31385 c 18.2131,-14.47912 41.89851,-28.25636 52.76348,-30.69125 7.52671,-1.68677 25.95958,-2.08582 45.41097,-0.98311 31.34192,1.77681 43.78537,0.59133 45.1016,-4.29678 3.10607,-11.53507 17.7645,-49.9187 26.57369,-69.5842 3.54262,-7.90849 8.71883,-19.83069 11.50268,-26.49378 2.78386,-6.66309 6.33534,-14.63807 7.89219,-17.72218 2.83064,-5.60745 2.83064,-5.60745 0.52976,-10.15229 -1.26549,-2.49965 -2.85023,-8.0791 -3.52165,-12.39876 -1.34988,-8.68465 -3.04265,-8.82406 -64.21188,-5.28839 -20.03496,1.15805 -21.9293,1.12196 -25.30998,-0.48228 -3.6132,-1.71458 -155.88167,-1.75869 -163.53421,-0.0474 -1.375,0.30748 -11.725,0.75746 -23,0.99994 -11.275,0.24248 -21.625,0.62924 -23,0.85946 -1.375,0.23022 -6.55,0.94605 -11.5,1.59071 -13.96954,1.81935 -31.48761,4.90939 -37,6.5265 -2.75,0.80673 -11.90577,3.49645 -20.34616,5.97716 -8.44039,2.48069 -15.7578,4.51036 -16.2609,4.51036 -0.50311,0 -2.82233,0.86134 -5.15384,1.91408 -2.3315,1.05274 -9.00661,3.77342 -14.83356,6.04593 -5.82695,2.27251 -13.70195,5.95484 -17.5,8.18296 -3.79805,2.22812 -9.51042,5.37271 -12.69417,6.98797 -8.93104,4.53113 -3.5502,36.65535 13.36614,79.79739 8.58223,21.8874 7.1026,20.64389 23.95766,20.13452 81.83511,-2.47312 175.58808,0.94473 203.96483,7.43572 3.575,0.81776 7.75146,1.72719 9.28102,2.02096 6.19627,1.19008 8.84616,11.38581 4.06109,15.6255 -15.33815,13.58999 -19.76966,20.04958 -6.53876,9.53123 z M 644.4547,562.51783 c 3.47701,-1.15013 6.18147,-3.01813 6.85698,-3.48569 1.02821,-0.71169 1.44618,-0.9083 2.35535,-1.39456 7.41204,-3.96424 13.42231,-20.26473 7.82928,-31.62578 -13.01428,-26.43577 -51.86346,-14.60781 -51.86346,15.79026 0,18.00801 15.36814,27.15063 34.82185,20.71577 z m 336.6547,-94.03049 c 9.3129,-1.1445 9.35512,-1.16233 8.44158,-3.5651 -0.50497,-1.32818 -0.91813,-6.84082 -0.91813,-12.25031 0,-9.62076 -3.1428,-34.64955 -4.94658,-39.39386 -2.54923,-6.70498 -28.07486,-19.32476 -43.76983,-21.63965 -25.91191,-3.8218 -29.45162,-4.14782 -40.78359,-3.75627 -11.06879,0.38245 -13.24161,0.80893 -28,5.49588 -16.9645,5.38757 -27.58968,7.74927 -39,8.66868 -10.99483,0.88594 -29.55198,6.60137 -55.5,17.09347 -13.6402,5.51543 -18.10945,6.3674 -31.41528,5.9887 -11.91528,-0.33912 -11.91528,-0.33912 -7.5,2.19978 24.65761,14.17869 58.21622,19.38353 102.4381,15.88783 25.69521,-2.03118 86.8808,-2.03244 88.91141,-0.002 1.44287,1.44288 1.14556,4.42291 -0.44126,4.42291 -2.4038,0 -18.25312,7.53288 -20.43045,9.71022 -6.06313,6.06312 -2.58173,7.88254 13.33985,6.97158 10.59744,-0.60635 11.9831,-0.43446 30.59763,3.79571 7.57236,1.72082 17.01588,1.84213 28.97655,0.37225 z m 137.8071,-29.02851 c 10.2694,-1.3105 10.0702,-2.1134 -2.5938,-10.45646 -11.6315,-7.66289 -24.7056,-10.46327 -57.9071,-12.4033 -10.5802,-0.61823 -19.5845,-1.33903 -20.0097,-1.60178 -0.4251,-0.26276 -0.773,-0.0709 -0.773,0.42629 0,4.21321 42.9019,24.00678 54,24.91386 3.575,0.29219 6.651,0.66777 6.8356,0.83461 0.4651,0.42042 9.9663,-0.37564 20.448,-1.71322 z M 750.13285,400.6653 c 19.48855,-5.49742 25.52723,-7.13865 46,-12.50215 9.35,-2.44954 22.4,-6.28561 29,-8.52462 6.6,-2.23899 19.8749,-6.34574 29.49979,-9.12608 9.62488,-2.78034 22.28125,-6.8146 28.12525,-8.96502 5.84401,-2.15042 11.11122,-3.90986 11.7049,-3.90986 1.26957,0 1.85739,-3.34723 2.67043,-15.20645 0.72999,-10.6478 -7.62519,-13.97309 -41.00037,-16.31783 -4.95,-0.34776 -18.45,-1.49323 -30,-2.54548 -11.55,-1.05228 -25.275,-1.95306 -30.5,-2.00176 -11.71113,-0.10913 -20.95022,-2.44065 -22.57224,-5.69619 -1.68285,-3.37765 -1.56468,-3.35066 -9.52863,-2.17627 -8.05063,1.18718 -35.61121,1.56523 -36.67339,0.50306 -0.36082,-0.36083 -1.12173,-2.09673 -1.69089,-3.85757 -1.03485,-3.20151 -1.03485,-3.20151 -12.53485,-3.90181 -17.94421,-1.09272 -62.40623,-8.32025 -65.35549,-10.62386 -1.15917,-0.90541 -25.88555,-9.18135 -39.64451,-13.26907 -7.6527,-2.27359 -27.68387,-9.6819 -34,-12.57453 -1.925,-0.8816 -6.65,-3.072 -10.5,-4.86756 -6.69946,-3.12449 -15.67565,-6.46468 -17.37268,-6.46468 -3.12991,0 -8.31135,16.55924 -12.20323,39 -3.43493,19.80597 -14.21649,71.04039 -15.849,75.3151 -0.5913,1.54831 -1.07509,3.39111 -1.07509,4.0951 0,3.40476 30.95545,9.46199 64.5,12.62107 11.55,1.08773 26.175,2.84845 32.5,3.9127 6.325,1.06425 16.9,2.18764 23.5,2.4964 12.54849,0.58708 20.01789,1.36062 37.5,3.88356 5.775,0.83342 17.475,2.03921 26,2.67952 8.525,0.64031 18.425,1.53663 22,1.99182 8.76718,1.11629 10.22141,0.90648 27.5,-3.96754 z m 295.18545,-38.74179 c 6.498,-6.94764 21.8167,-22.76456 34.0416,-35.14872 24.3846,-24.70246 24.5895,-24.99116 14.0607,-19.80631 -23.9005,11.76969 -33.2293,19.89677 -53.7945,46.86505 -2.4396,3.19923 -10.508,18.36249 -11.4417,21.50292 -1.3364,4.49456 5.0914,-0.53733 17.1339,-13.41294 z M 882.10608,294.68088 c 0.83823,-1.35627 -12.22545,-8.77026 -27.20898,-15.44182 -7.02034,-3.12586 -21.76425,-10.1444 -32.76425,-15.59673 -11,-5.45234 -21.7126,-10.18401 -23.80578,-10.51482 -13.98595,-2.21042 -7.97469,-13.87489 11.33983,-22.00426 10.95611,-4.61137 15.21842,-4.82731 37.96595,-1.92349 7.71287,0.98458 -43.81881,-35.81671 -53.75,-38.3855 -0.6875,-0.17783 -1.25,-0.66947 -1.25,-1.09253 0,-0.42307 -1.575,-1.6174 -3.5,-2.65408 -1.925,-1.03668 -3.5,-2.20222 -3.5,-2.59009 0,-0.38786 -1.0125,-1.01225 -2.25,-1.38753 -1.2375,-0.37527 -3.15,-1.45519 -4.25,-2.39981 -1.96817,-1.69016 -18.79671,-11.74606 -33.5,-20.01794 -10.25025,-5.76666 -31.7189,-16.03471 -33.5257,-16.03471 -2.64011,0 -1.60525,2.28914 7.68527,17 5.03654,7.975 10.75167,17.32493 12.70028,20.77761 1.94862,3.45269 4.24204,7.0527 5.09649,8 0.85445,0.94732 6.48954,7.34739 12.52242,14.22239 6.03289,6.875 15.16849,16.86976 20.30134,22.21057 12.35787,12.85856 12.66569,12.25098 -9.2801,18.31678 -9.31574,2.57487 -25.27051,3.7743 -39.98314,3.00581 -40.78429,-2.13029 -46.34201,-1.60599 -52.50398,4.95313 -2.61932,2.78814 -3.78676,2.29674 14.48712,6.09808 20.57134,4.27927 31.86722,6.89081 48.5,11.21292 16.99265,4.41564 27.77544,6.28859 50.5,8.7718 38.0807,4.16125 91.78124,13.01017 99.19098,16.34496 0.10504,0.0473 0.45706,-0.34456 0.78225,-0.87074 z M 697.08319,222.52217 c 3.1855,-3.19382 -13.52908,-44.78094 -20.45141,-50.8846 -0.31188,-0.275 -2.77344,-3.65 -5.47013,-7.5 -2.69669,-3.85 -5.49386,-7.35986 -6.21593,-7.79969 -0.72208,-0.43983 -1.31287,-1.49366 -1.31287,-2.34184 0,-0.84818 -0.92981,-2.73831 -2.06626,-4.20031 -1.13644,-1.46199 -4.14826,-6.03316 -6.69293,-10.15816 -5.00727,-8.11695 -14.6166,-20.13442 -21.15211,-26.45294 -4.90673,-4.74382 -4.7767,-5.57027 -2.5887,16.45294 0.79232,7.975 1.45504,23.275 1.47271,34 0.0392,23.80517 1.53138,44.88158 3.629,51.25952 1.66172,5.05254 3.00599,6.18882 9.08856,7.68238 4.11399,1.01018 50.74686,0.95856 51.76007,-0.0573 z"
       id="path527"
       sodipodi:nodetypes="ssssssssssssssssssssssssssssssssssssssssssssssssssssssssssssssssssssssssssssssssssssssssssssscsssssssssssssssssssssssssssssssssssssssssssssssssssssssssssssssssssssssssssssssssssssssssssssssssssssssssssssssssssssssssssssssssssssssssssssssssssssssssssssssssssssssssssssssssssssssssssssssssssssssssssssssssssssssssssssssssssssssssssssssssssssssssssssssssssssssssssssssssssssssssssssssssssssssssssssssssssssssssssssssssss" />
  </g>
</svg>
